<svg xmlns="http://www.w3.org/2000/svg"  viewBox="0 0 100 100" width="50px" height="50px"><circle cx="76" cy="12" r="1" fill="#f1bc19"/><circle cx="49" cy="49" r="37" fill="#e4e4f9"/><circle cx="49" cy="49" r="37" fill="#e4e4f9"/><circle cx="82" cy="14" r="4" fill="#f1bc19"/><circle cx="86" cy="23" r="2" fill="#8889b9"/><circle cx="80" cy="75" r="2" fill="#fbcd59"/><circle cx="14" cy="62" r="4" fill="#fbcd59"/><circle cx="24" cy="86" r="2" fill="#8889b9"/><circle cx="78.5" cy="32.5" r="1.5" fill="#fff"/><g><path fill="#ee3e54" d="M49,57.3c-10.74,0-22.3-4.319-22.3-13.8c0-9.983,12.088-21.8,22.3-21.8s22.3,11.817,22.3,21.8 C71.3,52.981,59.74,57.3,49,57.3z"/><path fill="#472b29" d="M49,22.4c9.69,0,21.6,11.635,21.6,21.1c0,9-11.197,13.1-21.6,13.1s-21.6-4.1-21.6-13.1 C27.4,34.035,39.31,22.4,49,22.4 M49,21c-10.629,0-23,12.283-23,22.5S38.371,58,49,58s23-4.283,23-14.5S59.629,21,49,21L49,21z"/><path fill="#f6cca4" d="M31.5,61.3c-3.267,0-5.8-3.924-5.8-7.3c0-3.616,1.843-5.3,5.8-5.3c3.198,0,5.8,2.826,5.8,6.3 S34.698,61.3,31.5,61.3z"/><path fill="#472b29" d="M31.5,49.4c2.812,0,5.1,2.512,5.1,5.6s-2.288,5.6-5.1,5.6c-2.574,0-5.1-3.269-5.1-6.6 C26.4,50.776,27.925,49.4,31.5,49.4 M31.5,48C27,48,25,50.134,25,54s2.91,8,6.5,8s6.5-3.134,6.5-7S35.09,48,31.5,48L31.5,48z"/><path fill="#f6cca4" d="M66.5,61.3c-3.198,0-5.8-2.826-5.8-6.3s2.602-6.3,5.8-6.3c3.957,0,5.8,1.684,5.8,5.3 C72.3,57.376,69.767,61.3,66.5,61.3z"/><path fill="#472b29" d="M66.5,49.4c3.575,0,5.1,1.376,5.1,4.6c0,3.331-2.526,6.6-5.1,6.6c-2.812,0-5.1-2.512-5.1-5.6 S63.688,49.4,66.5,49.4 M66.5,48c-3.59,0-6.5,3.134-6.5,7s2.91,7,6.5,7s6.5-4.134,6.5-8S71,48,66.5,48L66.5,48z"/><path fill="#f6cca4" d="M49.123,76.3c-6.663,0-15.109-5.864-18.074-12.549c-1.309-2.951-2.113-7.304,1.488-11.281 l0.181-0.2v-6.962c1.135-1,6.887-5.608,16.405-5.608c9.518,0,15.271,4.608,16.405,5.608v6.962l0.181,0.2 c3.601,3.976,2.796,8.329,1.488,11.281C64.231,70.436,55.786,76.3,49.123,76.3z"/><path fill="#472b29" d="M49.122,40.4c8.744,0,14.216,3.989,15.705,5.23V52v0.54l0.362,0.4 c3.348,3.697,2.591,7.766,1.367,10.527C63.69,69.93,55.543,75.6,49.122,75.6c-6.421,0-14.567-5.67-17.434-12.133 c-1.225-2.761-1.982-6.83,1.367-10.527l0.362-0.4V52v-6.374C34.899,44.381,40.328,40.4,49.122,40.4 M49.122,39 c-11.068,0-17.105,6-17.105,6v7c-9.056,10,6.037,25,17.105,25c11.068,0,26.161-15,17.105-25v-7C66.228,45,60.191,39,49.122,39 L49.122,39z"/><ellipse cx="43.5" cy="51.5" fill="#fff" rx="3.5" ry="4.5"/><path fill="#78a0cf" d="M43.5,56c1.933,0,3.5-2.015,3.5-4.5c0-0.702-0.127-1.365-0.35-1.957 C46.195,49.207,45.674,49,45.111,49C43.393,49,42,50.791,42,53c0,1.166,0.394,2.206,1.013,2.937C43.174,55.967,43.333,56,43.5,56z"/><path fill="#472b29" d="M43.5,56.25c-0.174,0-0.333-0.03-0.487-0.059c-0.057-0.01-0.153-0.049-0.19-0.093 c-0.474-0.56-0.809-1.269-0.968-2.048c-0.027-0.135,0.06-0.267,0.195-0.295c0.134-0.027,0.267,0.06,0.295,0.195 c0.136,0.667,0.413,1.272,0.804,1.758c0.133,0.025,0.24,0.042,0.352,0.042c1.792,0,3.25-1.906,3.25-4.25 c0-0.627-0.104-1.232-0.308-1.799c-0.788-0.552-1.674-0.584-2.445-0.155c-0.12,0.067-0.273,0.024-0.34-0.096 c-0.067-0.121-0.024-0.273,0.097-0.34c0.96-0.536,2.083-0.477,3.045,0.232c0.039,0.029,0.068,0.068,0.085,0.113 c0.243,0.644,0.366,1.332,0.366,2.045C47.25,54.119,45.568,56.25,43.5,56.25z"/><path fill="#472b29" d="M42.055,52.5c-0.012,0-0.024-0.001-0.037-0.003c-0.137-0.02-0.231-0.147-0.211-0.283 c0.02-0.134,0.044-0.266,0.074-0.395c0.131-0.576,0.354-1.102,0.66-1.562c0.077-0.115,0.233-0.145,0.347-0.069 c0.115,0.077,0.146,0.232,0.069,0.347c-0.273,0.409-0.471,0.878-0.589,1.396c-0.027,0.117-0.049,0.235-0.066,0.356 C42.284,52.41,42.177,52.5,42.055,52.5z"/><path fill="#836f61" d="M64,56c-10.5,4.268-19.5,4.268-30,0c-2,2.845,1,5.691,3,4.742c0,2.845,3,4.742,6,3.794 c1,2.845,4,2.845,6,1.897c2,0.948,5,0.948,6-1.897c3,0.948,6-0.948,6-3.794C63,61.691,66,58.845,64,56z"/><path fill="#472b29" d="M51.438,67.502c-0.798,0-1.637-0.175-2.438-0.52c-1.442,0.622-3.012,0.691-4.239,0.179 c-0.915-0.381-1.619-1.077-2.057-2.026c-1.546,0.356-3.152,0.055-4.372-0.838c-0.981-0.719-1.609-1.751-1.783-2.899 c-0.994,0.154-2.097-0.289-2.868-1.204c-0.854-1.013-1.327-2.723-0.09-4.481c0.134-0.191,0.381-0.263,0.598-0.176 c10.382,4.22,19.241,4.22,29.623,0c0.216-0.088,0.463-0.015,0.598,0.176c1.236,1.759,0.764,3.468-0.09,4.481 c-0.771,0.914-1.869,1.358-2.868,1.204c-0.173,1.148-0.802,2.18-1.783,2.899c-1.219,0.893-2.825,1.194-4.372,0.838 c-0.438,0.949-1.142,1.645-2.057,2.026C52.692,67.389,52.078,67.502,51.438,67.502z M49,65.933c0.073,0,0.146,0.016,0.214,0.048 c0.963,0.457,2.426,0.763,3.64,0.257c0.791-0.33,1.354-0.958,1.674-1.868c0.089-0.255,0.362-0.394,0.623-0.311 c1.377,0.436,2.845,0.222,3.926-0.569c0.918-0.672,1.423-1.648,1.423-2.748c0-0.171,0.088-0.331,0.233-0.423 c0.144-0.092,0.326-0.103,0.481-0.029c0.71,0.337,1.695,0.024,2.34-0.741c0.277-0.329,1.062-1.461,0.246-2.93 c-10.35,4.119-19.25,4.119-29.6,0c-0.816,1.469-0.032,2.601,0.246,2.93c0.646,0.766,1.63,1.078,2.34,0.741 c0.156-0.074,0.336-0.063,0.481,0.029c0.145,0.092,0.233,0.251,0.233,0.423c0,1.1,0.505,2.075,1.423,2.748 c1.081,0.792,2.549,1.005,3.926,0.569c0.257-0.083,0.533,0.056,0.623,0.311c0.32,0.91,0.883,1.538,1.674,1.868 c1.215,0.506,2.678,0.199,3.64-0.257C48.854,65.949,48.927,65.933,49,65.933z"/><ellipse cx="45.111" cy="53" fill="#472b29" rx="1.556" ry="2"/><path fill="#472b29" d="M39,47c-1-4,4-8,7-2C43,43,40,44,39,47z"/><path fill="#472b29" d="M58.87,47c1-4-4-8-7-2C54.87,43,57.87,44,58.87,47z"/><polygon fill="#472b29" points="36,50 32,54 32,46 36,43"/><polygon fill="#472b29" points="62,50 66,54 66,46 62,43"/><circle cx="49" cy="32" r="7" fill="#fff"/><path fill="#472b29" d="M42.25,30.39c-0.022,0-0.044-0.003-0.066-0.009c-0.133-0.036-0.211-0.174-0.175-0.307 c0.416-1.514,1.335-2.876,2.589-3.835c0.109-0.084,0.267-0.063,0.351,0.047c0.083,0.11,0.063,0.267-0.047,0.35 c-1.167,0.893-2.024,2.161-2.411,3.57C42.46,30.317,42.36,30.39,42.25,30.39z"/><path fill="#472b29" d="M49,39.25c-3.998,0-7.25-3.252-7.25-7.25c0-0.138,0.112-0.25,0.25-0.25s0.25,0.112,0.25,0.25 c0,3.722,3.028,6.75,6.75,6.75s6.75-3.028,6.75-6.75s-3.028-6.75-6.75-6.75c-0.831,0-1.642,0.149-2.411,0.443 c-0.128,0.05-0.273-0.015-0.323-0.144c-0.049-0.129,0.015-0.273,0.144-0.323C47.236,24.91,48.107,24.75,49,24.75 c3.998,0,7.25,3.252,7.25,7.25S52.998,39.25,49,39.25z"/><polygon fill="#ee3e54" points="52,27 49,29 46,27 43,35 46,35 47.25,30.25 49,32 50.75,30.25 52,35 55,35"/><path fill="#472b29" d="M53.641,31.625c-0.101,0-0.196-0.062-0.234-0.162l-1.53-4.08l-2.738,1.825 c-0.084,0.056-0.193,0.056-0.277,0l-2.738-1.825l-0.452,1.205c-0.049,0.129-0.193,0.194-0.322,0.146 c-0.129-0.049-0.195-0.193-0.146-0.322l0.563-1.5c0.026-0.071,0.084-0.127,0.157-0.15c0.071-0.024,0.151-0.012,0.215,0.03 L49,28.699l2.861-1.907c0.063-0.042,0.143-0.054,0.215-0.03c0.073,0.023,0.131,0.079,0.157,0.15l1.641,4.375 c0.049,0.129-0.017,0.273-0.146,0.322C53.7,31.62,53.67,31.625,53.641,31.625z"/><path fill="#472b29" d="M55,35.25h-3c-0.114,0-0.213-0.077-0.242-0.186l-1.139-4.329l-1.442,1.442 c-0.098,0.098-0.256,0.098-0.354,0l-1.442-1.442l-1.139,4.329c-0.029,0.11-0.128,0.186-0.242,0.186h-3 c-0.082,0-0.159-0.04-0.206-0.108c-0.046-0.067-0.057-0.153-0.028-0.23l1.875-5c0.048-0.129,0.194-0.195,0.322-0.146 c0.129,0.049,0.195,0.193,0.146,0.322l-1.748,4.662h2.446l1.201-4.564c0.023-0.086,0.09-0.154,0.176-0.178 c0.088-0.022,0.179,0.001,0.242,0.065L49,31.646l1.573-1.573c0.063-0.064,0.154-0.087,0.242-0.065 c0.086,0.023,0.153,0.091,0.176,0.178l1.201,4.564h2.446l-0.67-1.787c-0.049-0.129,0.017-0.273,0.146-0.322 c0.128-0.048,0.273,0.017,0.322,0.146l0.797,2.125c0.029,0.077,0.018,0.163-0.028,0.23C55.159,35.21,55.082,35.25,55,35.25z"/><path fill="#ee3e54" d="M65.25,48.75C63.196,43.795,56.593,40.3,49,40.3s-14.196,3.495-16.25,8.45 C31.336,47.441,30.7,46.588,30.7,45c0-5.679,8.209-10.3,18.3-10.3S67.3,39.321,67.3,45C67.3,46.588,66.664,47.441,65.25,48.75z"/><path fill="#472b29" d="M49,35.4c9.54,0,17.6,4.396,17.6,9.6c0,1.059-0.315,1.708-1.139,2.569 C62.91,42.849,56.401,39.6,49,39.6c-7.401,0-13.91,3.249-16.461,7.969C31.715,46.708,31.4,46.059,31.4,45 C31.4,39.796,39.46,35.4,49,35.4 M49,34c-10.493,0-19,4.925-19,11c0,2.207,1.134,3.257,3.066,4.979 C34.466,44.871,41.061,41,49,41s14.534,3.871,15.934,8.979C66.866,48.257,68,47.207,68,45C68,38.925,59.493,34,49,34L49,34z"/><path fill="#c07853" d="M43,69.141c2.667,5.625,9.333,5.625,12,0C51.153,69.869,47.142,69.817,43,69.141z"/><path fill="#fff" d="M55,69.141c-3.847,0.924-7.858,0.858-12,0c0.341,0.912,0.755,1.687,1.212,2.359h9.577 C54.245,70.827,54.659,70.053,55,69.141z"/><path fill="#472b29" d="M49,73.859c-2.703,0-5.115-1.684-6.452-4.505c-0.08-0.168-0.06-0.366,0.052-0.515 c0.112-0.149,0.298-0.222,0.48-0.193c4.219,0.689,8.198,0.69,11.826,0.002c0.188-0.035,0.374,0.037,0.489,0.186 c0.115,0.149,0.137,0.35,0.056,0.52C54.115,72.176,51.703,73.859,49,73.859z M43.92,69.785c1.21,1.942,3.056,3.074,5.08,3.074 c2.017,0,3.855-1.124,5.066-3.052C50.898,70.29,47.495,70.283,43.92,69.785z"/><path fill="#472b29" d="M43.5,56.25c-2.068,0-3.75-2.131-3.75-4.75c0-0.935,0.213-1.839,0.618-2.615 c0.064-0.122,0.216-0.169,0.337-0.106c0.123,0.064,0.17,0.215,0.106,0.337c-0.367,0.705-0.561,1.53-0.561,2.385 c0,2.344,1.458,4.25,3.25,4.25s3.25-1.906,3.25-4.25s-1.458-4.25-3.25-4.25c-0.573,0-1.136,0.198-1.629,0.574 c-0.11,0.083-0.267,0.062-0.35-0.048c-0.084-0.11-0.063-0.267,0.047-0.35c0.581-0.442,1.249-0.676,1.932-0.676 c2.068,0,3.75,2.131,3.75,4.75S45.568,56.25,43.5,56.25z"/><ellipse cx="54.5" cy="51.5" fill="#fff" rx="3.5" ry="4.5"/><path fill="#78a0cf" d="M54.5,56c-1.933,0-3.5-2.015-3.5-4.5c0-0.702,0.127-1.365,0.35-1.957 C51.805,49.207,52.326,49,52.889,49C54.607,49,56,50.791,56,53c0,1.166-0.394,2.206-1.013,2.937C54.826,55.967,54.667,56,54.5,56z"/><path fill="#472b29" d="M54.5,56.25c-2.068,0-3.75-2.131-3.75-4.75c0-0.714,0.123-1.402,0.366-2.045 c0.017-0.045,0.047-0.084,0.085-0.113c0.533-0.393,1.1-0.592,1.687-0.592c0.138,0,0.25,0.112,0.25,0.25s-0.112,0.25-0.25,0.25 c-0.457,0-0.904,0.152-1.331,0.451c-0.205,0.567-0.308,1.172-0.308,1.799c0,2.344,1.458,4.25,3.25,4.25 c0.12,0,0.236-0.02,0.352-0.042c0.58-0.72,0.898-1.678,0.898-2.708c0-0.138,0.112-0.25,0.25-0.25s0.25,0.112,0.25,0.25 c0,1.18-0.381,2.281-1.072,3.098c-0.037,0.044-0.089,0.074-0.146,0.084C54.833,56.22,54.674,56.25,54.5,56.25z"/><path fill="#472b29" d="M55.811,51.875c-0.109,0-0.209-0.072-0.24-0.182c-0.257-0.904-0.787-1.662-1.454-2.079 c-0.117-0.073-0.152-0.228-0.079-0.345c0.073-0.117,0.229-0.152,0.345-0.079c0.781,0.49,1.374,1.33,1.668,2.366 c0.038,0.133-0.039,0.271-0.172,0.309C55.856,51.872,55.833,51.875,55.811,51.875z"/><ellipse cx="52.889" cy="53" fill="#472b29" rx="1.556" ry="2"/><path fill="#472b29" d="M54.5,56.25c-2.068,0-3.75-2.131-3.75-4.75s1.682-4.75,3.75-4.75c0.752,0,1.478,0.28,2.098,0.81 c0.105,0.09,0.117,0.247,0.027,0.352c-0.089,0.105-0.247,0.117-0.353,0.028c-0.528-0.451-1.141-0.69-1.772-0.69 c-1.792,0-3.25,1.906-3.25,4.25s1.458,4.25,3.25,4.25s3.25-1.906,3.25-4.25c0-0.882-0.206-1.728-0.594-2.448 c-0.066-0.122-0.021-0.273,0.101-0.339c0.121-0.065,0.273-0.021,0.338,0.101c0.428,0.792,0.655,1.721,0.655,2.685 C58.25,54.119,56.568,56.25,54.5,56.25z"/><ellipse cx="49" cy="58.5" fill="#f6cca4" rx="6.5" ry="5"/><path fill="#472b29" d="M49,64c-3.86,0-7-2.467-7-5.5s3.14-5.5,7-5.5s7,2.467,7,5.5S52.86,64,49,64z M49,54 c-3.309,0-6,2.019-6,4.5s2.691,4.5,6,4.5s6-2.019,6-4.5S52.309,54,49,54z"/><g><path fill="#f6cca4" d="M49.875,61.443C49.592,61.481,49.299,61.5,49,61.5c-0.573,0-1.121-0.071-1.625-0.202"/><path fill="#472b29" d="M49,61.75c-0.582,0-1.15-0.071-1.688-0.21c-0.134-0.034-0.214-0.171-0.18-0.304 c0.035-0.134,0.169-0.215,0.305-0.179c0.758,0.196,1.604,0.244,2.405,0.139c0.13-0.019,0.262,0.078,0.281,0.215 c0.018,0.137-0.079,0.262-0.215,0.28C49.61,61.73,49.305,61.75,49,61.75z"/></g><g><path fill="#f6cca4" d="M53.402,59.125c-0.069,0.218-0.174,0.427-0.31,0.625c-0.402,0.583-1.075,1.066-1.913,1.375"/><path fill="#472b29" d="M51.179,61.375c-0.102,0-0.197-0.063-0.234-0.163c-0.048-0.129,0.018-0.273,0.147-0.321 c0.788-0.291,1.425-0.747,1.793-1.283c0.124-0.18,0.218-0.368,0.278-0.559c0.042-0.131,0.179-0.205,0.314-0.163 c0.132,0.042,0.205,0.182,0.163,0.314c-0.076,0.238-0.191,0.471-0.343,0.691c-0.427,0.62-1.148,1.141-2.032,1.468 C51.237,61.371,51.208,61.375,51.179,61.375z"/></g><g><path fill="#f6cca4" d="M52.625,56.722c0.55,0.498,0.875,1.112,0.875,1.778c0,0.214-0.034,0.423-0.098,0.625"/><path fill="#472b29" d="M53.402,59.375c-0.025,0-0.05-0.004-0.076-0.012c-0.131-0.042-0.205-0.182-0.163-0.314 c0.057-0.179,0.086-0.364,0.086-0.549c0-0.573-0.274-1.123-0.793-1.593c-0.102-0.093-0.11-0.251-0.018-0.353 c0.093-0.103,0.252-0.11,0.354-0.018c0.626,0.567,0.957,1.246,0.957,1.963c0,0.236-0.037,0.472-0.109,0.701 C53.607,59.307,53.508,59.375,53.402,59.375z"/></g><g><path fill="#472b29" d="M47.5,71.75h-2.75c-0.138,0-0.25-0.112-0.25-0.25s0.112-0.25,0.25-0.25h2.75 c0.138,0,0.25,0.112,0.25,0.25S47.638,71.75,47.5,71.75z"/></g><g><path fill="#472b29" d="M53,71.75h-3.875c-0.138,0-0.25-0.112-0.25-0.25s0.112-0.25,0.25-0.25H53 c0.138,0,0.25,0.112,0.25,0.25S53.138,71.75,53,71.75z"/></g><g><path fill="#472b29" d="M32,53.25c-0.064,0-0.128-0.024-0.177-0.073c-1.852-1.851-3.694-0.963-3.711-0.953 c-0.124,0.061-0.273,0.012-0.335-0.112c-0.062-0.124-0.012-0.274,0.112-0.335c0.021-0.011,2.187-1.056,4.289,1.047 c0.098,0.098,0.098,0.256,0,0.354C32.128,53.226,32.064,53.25,32,53.25z"/></g><g><path fill="#472b29" d="M66,53.25c-0.064,0-0.128-0.024-0.177-0.073c-0.098-0.098-0.098-0.256,0-0.354 c2.103-2.103,4.267-1.058,4.289-1.047c0.123,0.062,0.173,0.211,0.112,0.334c-0.061,0.124-0.211,0.174-0.334,0.113 c-0.076-0.036-1.871-0.888-3.712,0.953C66.128,53.226,66.064,53.25,66,53.25z"/></g></g></svg>